<svg id="visual" viewBox="0 0 960 540" width="960" height="540" xmlns="http://www.w3.org/2000/svg" xmlns:xlink="http://www.w3.org/1999/xlink" version="1.1"><path d="M0 212L14.5 198.5C29 185 58 158 87.2 153.5C116.3 149 145.7 167 174.8 171.5C204 176 233 167 262 166C291 165 320 172 349 175.5C378 179 407 179 436.2 180.8C465.3 182.7 494.7 186.3 523.8 181.8C553 177.3 582 164.7 611 162.8C640 161 669 170 698 171C727 172 756 165 785.2 162.3C814.3 159.7 843.7 161.3 872.8 164C902 166.7 931 170.3 945.5 172.2L960 174L960 0L945.5 0C931 0 902 0 872.8 0C843.7 0 814.3 0 785.2 0C756 0 727 0 698 0C669 0 640 0 611 0C582 0 553 0 523.8 0C494.7 0 465.3 0 436.2 0C407 0 378 0 349 0C320 0 291 0 262 0C233 0 204 0 174.8 0C145.7 0 116.3 0 87.2 0C58 0 29 0 14.5 0L0 0Z" fill="#ff2e2e"></path><path d="M0 336L14.5 336C29 336 58 336 87.2 337.8C116.3 339.7 145.7 343.3 174.8 343.3C204 343.3 233 339.7 262 346.8C291 354 320 372 349 372.8C378 373.7 407 357.3 436.2 351C465.3 344.7 494.7 348.3 523.8 352C553 355.7 582 359.3 611 366.5C640 373.7 669 384.3 698 386.2C727 388 756 381 785.2 370.2C814.3 359.3 843.7 344.7 872.8 340.2C902 335.7 931 341.3 945.5 344.2L960 347L960 172L945.5 170.2C931 168.3 902 164.7 872.8 162C843.7 159.3 814.3 157.7 785.2 160.3C756 163 727 170 698 169C669 168 640 159 611 160.8C582 162.7 553 175.3 523.8 179.8C494.7 184.3 465.3 180.7 436.2 178.8C407 177 378 177 349 173.5C320 170 291 163 262 164C233 165 204 174 174.8 169.5C145.7 165 116.3 147 87.2 151.5C58 156 29 183 14.5 196.5L0 210Z" fill="#400c12"></path><path d="M0 422L14.5 419.3C29 416.7 58 411.3 87.2 408.7C116.3 406 145.7 406 174.8 408.7C204 411.3 233 416.7 262 423.8C291 431 320 440 349 443.7C378 447.3 407 445.7 436.2 441.2C465.3 436.7 494.7 429.3 523.8 430.2C553 431 582 440 611 445.5C640 451 669 453 698 454C727 455 756 455 785.2 451.3C814.3 447.7 843.7 440.3 872.8 436.7C902 433 931 433 945.5 433L960 433L960 345L945.5 342.2C931 339.3 902 333.7 872.8 338.2C843.7 342.7 814.3 357.3 785.2 368.2C756 379 727 386 698 384.2C669 382.3 640 371.7 611 364.5C582 357.3 553 353.7 523.8 350C494.7 346.3 465.3 342.7 436.2 349C407 355.3 378 371.7 349 370.8C320 370 291 352 262 344.8C233 337.7 204 341.3 174.8 341.3C145.7 341.3 116.3 337.7 87.2 335.8C58 334 29 334 14.5 334L0 334Z" fill="#400c12"></path><path d="M0 541L14.5 541C29 541 58 541 87.2 541C116.3 541 145.7 541 174.8 541C204 541 233 541 262 541C291 541 320 541 349 541C378 541 407 541 436.2 541C465.3 541 494.7 541 523.8 541C553 541 582 541 611 541C640 541 669 541 698 541C727 541 756 541 785.2 541C814.3 541 843.7 541 872.8 541C902 541 931 541 945.5 541L960 541L960 431L945.5 431C931 431 902 431 872.8 434.7C843.7 438.3 814.3 445.7 785.2 449.3C756 453 727 453 698 452C669 451 640 449 611 443.5C582 438 553 429 523.8 428.2C494.7 427.3 465.3 434.7 436.2 439.2C407 443.7 378 445.3 349 441.7C320 438 291 429 262 421.8C233 414.7 204 409.3 174.8 406.7C145.7 404 116.3 404 87.2 406.7C58 409.3 29 414.7 14.5 417.3L0 420Z" fill="#ff2e2e"></path></svg>